<svg width="26" height="26" viewBox="0 0 26 26" fill="none" xmlns="http://www.w3.org/2000/svg">
<path d="M24.084 1.90342C21.5474 -0.634474 17.3917 -0.634474 14.8551 1.90342L9.87184 6.88922C11.5809 6.40324 13.4339 6.52923 15.053 7.2852L17.6435 4.69331C18.651 3.68535 20.2881 3.68535 21.2955 4.69331C22.3029 5.70127 22.3029 7.3392 21.2955 8.34716L18.0393 11.605L15.8985 13.7469C14.891 14.7549 13.254 14.7549 12.2465 13.7469L9.45801 16.5368C10.1056 17.1849 10.8612 17.6708 11.6528 17.9768C13.7937 18.8227 16.2763 18.4987 18.1472 17.0227C18.3271 16.8788 18.525 16.7168 18.6869 16.5368L22.0511 13.1709L24.0839 11.137C26.6386 8.59915 26.6386 4.45932 24.084 1.90342Z" fill="#828896"/>
<path d="M10.8254 18.8227L8.34281 21.3066C7.33537 22.3146 5.69828 22.3146 4.69084 21.3066C3.6834 20.2987 3.6834 18.6608 4.69084 17.6528L10.0878 12.253C11.0953 11.2451 12.7324 11.2451 13.7399 12.253L16.5283 9.46316C15.8807 8.81518 15.1251 8.3292 14.3335 8.02321C12.0848 7.12325 9.44026 7.53723 7.55131 9.22917C7.46136 9.30116 7.37141 9.39116 7.29945 9.46316L1.90244 14.8629C-0.634148 17.4008 -0.634148 21.5586 1.90244 24.0966C4.43904 26.6345 8.59473 26.6345 11.1313 24.0966L16.0067 19.1647C13.5239 19.7406 12.9483 19.6687 10.8254 18.8227Z" fill="#828896"/>
</svg>
